<mxfile host="Electron" modified="2023-11-07T12:20:39.733Z" agent="Mozilla/5.0 (Windows NT 10.0; Win64; x64) AppleWebKit/537.36 (KHTML, like Gecko) draw.io/22.0.2 Chrome/114.0.5735.289 Electron/25.8.4 Safari/537.36" etag="Nq-ptd46cM5v4jkPy4pX" version="22.0.2" type="device">
  <diagram name="Page-1" id="yXvmXwFzBdzRHNSo9j65">
    <mxGraphModel dx="1722" dy="1475" grid="1" gridSize="10" guides="1" tooltips="1" connect="1" arrows="1" fold="1" page="1" pageScale="1" pageWidth="827" pageHeight="1169" math="0" shadow="0">
      <root>
        <mxCell id="0" />
        <mxCell id="1" parent="0" />
        <mxCell id="FEz4e-OjVFpACOFIyIqL-1" value="" style="verticalAlign=top;verticalLabelPosition=bottom;labelPosition=center;align=center;html=1;outlineConnect=0;fillColor=#ffe6cc;strokeColor=#d79b00;gradientDirection=north;strokeWidth=2;shape=mxgraph.networks.business_center;" vertex="1" parent="1">
          <mxGeometry x="110" y="100" width="162" height="180" as="geometry" />
        </mxCell>
        <mxCell id="FEz4e-OjVFpACOFIyIqL-2" value="" style="html=1;outlineConnect=0;fillColor=#dae8fc;strokeColor=#6c8ebf;gradientDirection=north;strokeWidth=2;shape=mxgraph.networks.cloud;" vertex="1" parent="1">
          <mxGeometry x="490" y="115" width="270" height="150" as="geometry" />
        </mxCell>
        <mxCell id="FEz4e-OjVFpACOFIyIqL-3" value="" style="verticalAlign=top;verticalLabelPosition=bottom;labelPosition=center;align=center;html=1;outlineConnect=0;gradientDirection=north;strokeWidth=2;shape=mxgraph.networks.server;fillColor=#e1d5e7;strokeColor=#9673a6;" vertex="1" parent="1">
          <mxGeometry x="550" y="175" width="63" height="70" as="geometry" />
        </mxCell>
        <mxCell id="FEz4e-OjVFpACOFIyIqL-4" value="" style="verticalAlign=top;verticalLabelPosition=bottom;labelPosition=center;align=center;html=1;outlineConnect=0;gradientDirection=north;strokeWidth=2;shape=mxgraph.networks.server;fillColor=#e1d5e7;strokeColor=#9673a6;" vertex="1" parent="1">
          <mxGeometry x="630" y="155" width="63" height="70" as="geometry" />
        </mxCell>
        <mxCell id="FEz4e-OjVFpACOFIyIqL-5" style="edgeStyle=orthogonalEdgeStyle;rounded=0;orthogonalLoop=1;jettySize=auto;html=1;startArrow=classic;startFill=1;strokeWidth=3;" edge="1" parent="1">
          <mxGeometry relative="1" as="geometry">
            <mxPoint x="540" y="210" as="targetPoint" />
            <mxPoint x="290" y="210" as="sourcePoint" />
          </mxGeometry>
        </mxCell>
        <mxCell id="FEz4e-OjVFpACOFIyIqL-6" value="" style="verticalAlign=top;verticalLabelPosition=bottom;labelPosition=center;align=center;html=1;outlineConnect=0;fillColor=#d5e8d4;strokeColor=#82b366;gradientDirection=north;strokeWidth=2;shape=mxgraph.networks.business_center;" vertex="1" parent="1">
          <mxGeometry x="70" y="510" width="162" height="180" as="geometry" />
        </mxCell>
        <mxCell id="FEz4e-OjVFpACOFIyIqL-7" value="" style="html=1;outlineConnect=0;fillColor=#dae8fc;strokeColor=#6c8ebf;gradientDirection=north;strokeWidth=2;shape=mxgraph.networks.cloud;" vertex="1" parent="1">
          <mxGeometry x="468" y="585" width="270" height="150" as="geometry" />
        </mxCell>
        <mxCell id="FEz4e-OjVFpACOFIyIqL-8" value="" style="verticalAlign=top;verticalLabelPosition=bottom;labelPosition=center;align=center;html=1;outlineConnect=0;gradientDirection=north;strokeWidth=2;shape=mxgraph.networks.server;fillColor=#e1d5e7;strokeColor=#9673a6;" vertex="1" parent="1">
          <mxGeometry x="528" y="645" width="63" height="70" as="geometry" />
        </mxCell>
        <mxCell id="FEz4e-OjVFpACOFIyIqL-9" value="" style="verticalAlign=top;verticalLabelPosition=bottom;labelPosition=center;align=center;html=1;outlineConnect=0;gradientDirection=north;strokeWidth=2;shape=mxgraph.networks.server;fillColor=#e1d5e7;strokeColor=#9673a6;" vertex="1" parent="1">
          <mxGeometry x="608" y="625" width="63" height="70" as="geometry" />
        </mxCell>
        <mxCell id="FEz4e-OjVFpACOFIyIqL-10" style="edgeStyle=orthogonalEdgeStyle;orthogonalLoop=1;jettySize=auto;html=1;startArrow=classic;startFill=1;strokeWidth=3;curved=1;" edge="1" parent="1">
          <mxGeometry relative="1" as="geometry">
            <mxPoint x="518" y="685" as="targetPoint" />
            <mxPoint x="250" y="625" as="sourcePoint" />
            <Array as="points">
              <mxPoint x="400" y="626" />
              <mxPoint x="400" y="685" />
            </Array>
          </mxGeometry>
        </mxCell>
        <mxCell id="FEz4e-OjVFpACOFIyIqL-11" value="" style="verticalAlign=top;verticalLabelPosition=bottom;labelPosition=center;align=center;html=1;outlineConnect=0;fillColor=#ffe6cc;strokeColor=#d79b00;gradientDirection=north;strokeWidth=2;shape=mxgraph.networks.business_center;" vertex="1" parent="1">
          <mxGeometry x="1010" y="645" width="162" height="180" as="geometry" />
        </mxCell>
        <mxCell id="FEz4e-OjVFpACOFIyIqL-14" style="edgeStyle=orthogonalEdgeStyle;orthogonalLoop=1;jettySize=auto;html=1;startArrow=classic;startFill=1;strokeWidth=3;curved=1;" edge="1" parent="1">
          <mxGeometry relative="1" as="geometry">
            <mxPoint x="978" y="755" as="targetPoint" />
            <mxPoint x="710" y="695" as="sourcePoint" />
            <Array as="points">
              <mxPoint x="860" y="696" />
              <mxPoint x="860" y="755" />
            </Array>
          </mxGeometry>
        </mxCell>
        <mxCell id="FEz4e-OjVFpACOFIyIqL-15" style="edgeStyle=orthogonalEdgeStyle;orthogonalLoop=1;jettySize=auto;html=1;startArrow=classic;startFill=1;strokeWidth=3;curved=1;" edge="1" parent="1">
          <mxGeometry relative="1" as="geometry">
            <mxPoint x="509" y="710" as="targetPoint" />
            <mxPoint x="220" y="820" as="sourcePoint" />
            <Array as="points">
              <mxPoint x="340" y="820" />
              <mxPoint x="340" y="710" />
            </Array>
          </mxGeometry>
        </mxCell>
        <mxCell id="FEz4e-OjVFpACOFIyIqL-16" value="" style="verticalAlign=top;verticalLabelPosition=bottom;labelPosition=center;align=center;html=1;outlineConnect=0;fillColor=#f8cecc;strokeColor=#b85450;gradientDirection=north;strokeWidth=2;shape=mxgraph.networks.business_center;" vertex="1" parent="1">
          <mxGeometry x="40" y="710" width="162" height="180" as="geometry" />
        </mxCell>
        <mxCell id="FEz4e-OjVFpACOFIyIqL-17" value="" style="verticalAlign=top;verticalLabelPosition=bottom;labelPosition=center;align=center;html=1;outlineConnect=0;fillColor=#fff2cc;strokeColor=#d6b656;gradientDirection=north;strokeWidth=2;shape=mxgraph.networks.business_center;" vertex="1" parent="1">
          <mxGeometry x="1010" y="445" width="162" height="180" as="geometry" />
        </mxCell>
        <mxCell id="FEz4e-OjVFpACOFIyIqL-18" style="edgeStyle=orthogonalEdgeStyle;orthogonalLoop=1;jettySize=auto;html=1;startArrow=classic;startFill=1;strokeWidth=3;curved=1;" edge="1" parent="1">
          <mxGeometry relative="1" as="geometry">
            <mxPoint x="979" y="560" as="targetPoint" />
            <mxPoint x="690" y="670" as="sourcePoint" />
            <Array as="points">
              <mxPoint x="810" y="670" />
              <mxPoint x="810" y="560" />
            </Array>
          </mxGeometry>
        </mxCell>
        <mxCell id="FEz4e-OjVFpACOFIyIqL-19" value="" style="html=1;outlineConnect=0;fillColor=#f8cecc;strokeColor=#b85450;gradientDirection=north;strokeWidth=2;shape=mxgraph.networks.cloud;" vertex="1" parent="1">
          <mxGeometry x="414" y="1169" width="270" height="150" as="geometry" />
        </mxCell>
        <mxCell id="FEz4e-OjVFpACOFIyIqL-20" value="" style="html=1;outlineConnect=0;fillColor=#dae8fc;strokeColor=#6c8ebf;gradientDirection=north;strokeWidth=2;shape=mxgraph.networks.cloud;" vertex="1" parent="1">
          <mxGeometry x="-230" y="1169" width="270" height="150" as="geometry" />
        </mxCell>
        <mxCell id="FEz4e-OjVFpACOFIyIqL-23" value="" style="group" vertex="1" connectable="0" parent="1">
          <mxGeometry x="-340" y="1360" width="90" height="100" as="geometry" />
        </mxCell>
        <mxCell id="FEz4e-OjVFpACOFIyIqL-21" value="" style="verticalAlign=top;verticalLabelPosition=bottom;labelPosition=center;align=center;html=1;outlineConnect=0;fillColor=#dae8fc;strokeColor=#6c8ebf;gradientDirection=north;strokeWidth=2;shape=mxgraph.networks.user_male;" vertex="1" parent="FEz4e-OjVFpACOFIyIqL-23">
          <mxGeometry width="40" height="100" as="geometry" />
        </mxCell>
        <mxCell id="FEz4e-OjVFpACOFIyIqL-22" value="" style="verticalAlign=top;verticalLabelPosition=bottom;labelPosition=center;align=center;html=1;outlineConnect=0;fillColor=#dae8fc;strokeColor=#6c8ebf;gradientDirection=north;strokeWidth=2;shape=mxgraph.networks.user_female;" vertex="1" parent="FEz4e-OjVFpACOFIyIqL-23">
          <mxGeometry x="50" width="40" height="100" as="geometry" />
        </mxCell>
        <mxCell id="FEz4e-OjVFpACOFIyIqL-24" value="&lt;font color=&quot;#5182c8&quot; style=&quot;font-size: 24px;&quot;&gt;&lt;b style=&quot;&quot;&gt;Ã–ffentlich geteilte &lt;br&gt;virtualisierte Ressourcen&lt;/b&gt;&lt;/font&gt;" style="text;html=1;align=left;verticalAlign=middle;resizable=0;points=[];autosize=1;strokeColor=none;fillColor=none;" vertex="1" parent="1">
          <mxGeometry x="-230" y="1375" width="310" height="70" as="geometry" />
        </mxCell>
        <mxCell id="FEz4e-OjVFpACOFIyIqL-25" value="" style="verticalAlign=top;verticalLabelPosition=bottom;labelPosition=center;align=center;html=1;outlineConnect=0;fillColor=#dae8fc;strokeColor=#6c8ebf;gradientDirection=north;strokeWidth=2;shape=mxgraph.networks.users;" vertex="1" parent="1">
          <mxGeometry x="20" y="1470" width="90" height="100" as="geometry" />
        </mxCell>
        <mxCell id="FEz4e-OjVFpACOFIyIqL-26" value="&lt;font color=&quot;#5182c8&quot; style=&quot;font-size: 24px;&quot;&gt;&lt;b style=&quot;&quot;&gt;Wird von mehreren&lt;br&gt;Kunden verwendet&lt;br&gt;&lt;/b&gt;&lt;/font&gt;" style="text;html=1;align=right;verticalAlign=middle;resizable=0;points=[];autosize=1;strokeColor=none;fillColor=none;" vertex="1" parent="1">
          <mxGeometry x="-230" y="1485" width="240" height="70" as="geometry" />
        </mxCell>
        <mxCell id="FEz4e-OjVFpACOFIyIqL-28" value="" style="verticalLabelPosition=bottom;sketch=0;html=1;fillColor=#b5c8e3;strokeColor=none;verticalAlign=top;pointerEvents=1;align=center;shape=mxgraph.cisco_safe.security_icons.web;strokeWidth=1;" vertex="1" parent="1">
          <mxGeometry x="-340" y="1600" width="80" height="80" as="geometry" />
        </mxCell>
        <mxCell id="FEz4e-OjVFpACOFIyIqL-29" value="&lt;font color=&quot;#5182c8&quot; style=&quot;font-size: 24px;&quot;&gt;&lt;b style=&quot;&quot;&gt;Verbindung Ã¼bers &lt;br&gt;&lt;div style=&quot;text-align: left;&quot;&gt;&lt;b style=&quot;background-color: initial;&quot;&gt;Internet&lt;/b&gt;&lt;/div&gt;&lt;/b&gt;&lt;/font&gt;" style="text;html=1;align=right;verticalAlign=middle;resizable=0;points=[];autosize=1;strokeColor=none;fillColor=none;" vertex="1" parent="1">
          <mxGeometry x="-260" y="1605" width="230" height="70" as="geometry" />
        </mxCell>
        <mxCell id="FEz4e-OjVFpACOFIyIqL-30" value="" style="verticalLabelPosition=bottom;sketch=0;html=1;fillColor=#b68281;strokeColor=none;verticalAlign=top;pointerEvents=1;align=center;shape=mxgraph.cisco_safe.iot_things_icons.icon41;fillStyle=solid;" vertex="1" parent="1">
          <mxGeometry x="677.5" y="1360" width="49" height="84.48" as="geometry" />
        </mxCell>
        <mxCell id="FEz4e-OjVFpACOFIyIqL-31" value="&lt;font style=&quot;font-size: 24px;&quot;&gt;&lt;b style=&quot;&quot;&gt;&lt;font color=&quot;#b85450&quot;&gt;Ressourcen &lt;br&gt;werden reserviert&lt;/font&gt;&lt;br&gt;&lt;/b&gt;&lt;/font&gt;" style="text;html=1;align=right;verticalAlign=middle;resizable=0;points=[];autosize=1;strokeColor=none;fillColor=none;" vertex="1" parent="1">
          <mxGeometry x="446.5" y="1368" width="220" height="70" as="geometry" />
        </mxCell>
        <mxCell id="FEz4e-OjVFpACOFIyIqL-33" value="" style="verticalLabelPosition=bottom;sketch=0;html=1;fillColor=#b5c8e3;strokeColor=none;verticalAlign=top;pointerEvents=1;align=center;shape=mxgraph.cisco_safe.iot_things_icons.icon41;fillStyle=solid;" vertex="1" parent="1">
          <mxGeometry x="71" y="1700" width="49" height="84.48" as="geometry" />
        </mxCell>
        <mxCell id="FEz4e-OjVFpACOFIyIqL-34" value="&lt;font color=&quot;#5182c8&quot; style=&quot;font-size: 24px;&quot;&gt;&lt;b style=&quot;&quot;&gt;Geeignet fÃ¼r &lt;br&gt;unkritische Daten&amp;nbsp;&lt;br&gt;&lt;/b&gt;&lt;/font&gt;" style="text;html=1;align=right;verticalAlign=middle;resizable=0;points=[];autosize=1;strokeColor=none;fillColor=none;" vertex="1" parent="1">
          <mxGeometry x="-170" y="1708" width="230" height="70" as="geometry" />
        </mxCell>
      </root>
    </mxGraphModel>
  </diagram>
</mxfile>
